Screens...
 
http://picturestack.com/221/261/We2LisaAnnfroEx8.jpg

Info....


Complete name                    : Lisa Ann from New Dad in Town.avi
Format                           : AVI
Format/Info                      : Audio Video Interleave
File size                        : 112 MiB
Duration                         : 12mn 30s
Overall bit rate                 : 1 255 Kbps
Writing library                  : The File had been created by Solveig Multimedia AVI Writer

Video
ID                               : 0
Format                           : MPEG-4 Visual
Format profile                   : Advanced Simple@L5
Format settings, BVOP            : 2
Format settings, QPel            : No
Format settings, GMC             : No warppoints
Format settings, Matrix          : Default (MPEG)
Codec ID                         : XVID
Codec ID/Hint                    : XviD
Duration                         : 12mn 30s
Bit rate                         : 1 125 Kbps
Width                            : 640 pixels
Height                           : 352 pixels
Display aspect ratio             : 16:9
Frame rate                       : 23.976 fps
Color space                      : YUV
Chroma subsampling               : 4:2:0
Bit depth                        : 8 bits
Scan type                        : Progressive
Compression mode                 : Lossy
Bits/(Pixel*Frame)               : 0.208
Stream size                      : 101 MiB (90%)
Writing library                  : XviD 1.2.1 (UTC 2008-12-04)

Audio
ID                               : 1
Format                           : MPEG Audio
Format version                   : Version 1
Format profile                   : Layer 3
Mode                             : Joint stereo
Mode extension                   : MS Stereo
Codec ID                         : 55
Codec ID/Hint                    : MP3
Duration                         : 11mn 31s
Bit rate mode                    : Variable
Bit rate                         : 128 Kbps
Channel(s)                       : 2 channels
Sampling rate                    : 48.0 KHz
Compression mode                 : Lossy
Delay relative to video          : 1ms
Stream size                      : 10.5 MiB (9%)
Alignment                        : Aligned on interleaves
Interleave, duration             : 24 ms (0.58 video frame)

